<?xml version="1.0" encoding="UTF-8"?>
<svg width="752pt" height="752pt" version="1.1" viewBox="0 0 752 752" xmlns="http://www.w3.org/2000/svg">
 <path d="m314.44 326.28c-5.2109 0-9.9453-1.4219-12.785-4.7344-0.94531-0.94531-1.8945-2.3672-1.8945-4.7344 0-4.7344-4.2617-9.4727-9.4727-9.4727-5.6836 0-9.4727 4.2617-9.4727 9.4727 0 6.1562 2.8398 12.312 7.5781 17.523 4.7344 4.7344 10.418 7.5781 17.051 8.9961l-0.47656 10.887c0 5.2109 4.2617 8.9961 8.9961 8.9961 5.6836 0 9.4727-3.7891 9.4727-8.9961v-10.418c14.68-3.7891 24.625-13.734 24.625-26.52 0-7.1055-2.8398-12.785-7.5781-17.996-6.1562-6.1562-15.629-9.9453-26.52-9.9453-5.2109 0-9.9453-1.8945-12.785-4.7344-0.94531-0.94531-1.8945-2.3672-1.8945-4.7344 0-4.7344 6.1562-9.4727 14.68-9.4727 4.7344 0 8.9961 1.4219 12.312 3.7891 1.4219 0.94531 3.7891 2.8398 3.3164 5.6836 0 5.2109 3.7891 9.4727 9.4727 9.4727 4.7344 0 8.9961-3.7891 8.9961-8.9961 0-8.0508-3.7891-15.629-10.891-20.836-3.7891-2.8398-8.5234-4.7344-13.734-6.1562v-10.891c0.47266-4.7344-3.7891-8.9961-9.4727-8.9961-4.7344 0.47266-8.9961 4.2617-8.9961 8.9961v10.41c-14.68 3.3164-25.102 13.734-25.102 26.52 0 6.6289 2.8398 12.785 7.5781 17.996 6.6289 6.1562 16.102 10.418 26.52 10.418 5.2109 0 10.418 1.4219 13.262 4.7344 0.94531 0.94531 2.3672 2.8398 1.8945 4.7344 0.94531 4.2656-5.2109 9.0039-14.68 9.0039zm161.96 109.87v-28.887h-200.8v28.887zm0 66.777v-28.887l-200.8-0.003906v28.887zm0-133.08v-28.887h-87.141v28.887zm62.039-109.39-91.875-91.875c-2.3711-2.8438-7.5781-5.6836-13.734-5.6836h-205.54c-10.891 0-19.418 8.5234-19.418 19.418v387.39c0 10.891 8.5234 19.418 19.418 19.418h297.41c10.418 0 18.941-8.5234 18.941-19.418v-295.52c0.47266-6.1562-1.8945-10.891-5.207-13.73zm-291.73 289.83v-348.55h167.17v72.457c0 10.891 8.5234 19.418 18.941 19.418h72.457v257.16h-258.57z"/>
</svg>
