<svg xmlns="http://www.w3.org/2000/svg" viewBox="0 0 55.5 38.05"><defs><style>.cls-1{fill:none;stroke:#2e66ff;stroke-linecap:round;stroke-linejoin:round;stroke-width:1.5px;}</style></defs><g id="Layer_2" data-name="Layer 2"><g id="blue"><circle class="cls-1" cx="27.97" cy="3.99" r="3.24" transform="translate(-0.2 1.8) rotate(-3.68)"/><path class="cls-1" d="M25.12,37.3l-.6-10.14H19.4s4.14-4,4.27-14.71c0,0,.17-1.85,4.3-1.85s4,1.85,4,1.85.12,12.41,4.43,14.71H30.61L30.19,37.3"/><circle class="cls-1" cx="4.34" cy="10.51" r="1.85" transform="translate(-6.96 11.74) rotate(-73.78)"/><circle class="cls-1" cx="13.76" cy="6.8" r="2.02" transform="translate(-0.86 2.12) rotate(-8.54)"/><path class="cls-1" d="M12,30.12,11.61,21H8.41s2.58-2.27,2.66-8.95c0,0,.11-1.16,2.69-1.16s2.48,1.16,2.48,1.16.08,7.52,2.77,9H15.42l-.27,9.08"/><path class="cls-1" d="M7.74,18.49l-.21-2s.06-1.08-.58-1.42a3.94,3.94,0,0,0-2.68-.62c-2,0-2.92.64-3.16,1.49l-.34,5.1S.4,22.4,2.69,22.89l0,6.88"/><path class="cls-1" d="M6.19,29.77v-7s.66-.05,1.18-.14"/><circle class="cls-1" cx="51.16" cy="10.51" r="1.85" transform="translate(-0.9 14.7) rotate(-16.22)"/><circle class="cls-1" cx="41.74" cy="6.8" r="2.02" transform="translate(28.81 47.07) rotate(-81.46)"/><path class="cls-1" d="M43.52,30.12,43.89,21h3.2s-2.58-2.27-2.66-8.95c0,0-.11-1.16-2.69-1.16s-2.48,1.16-2.48,1.16-.08,7.52-2.77,9h3.59l.27,9.08"/><path class="cls-1" d="M47.76,18.49l.21-2s-.06-1.08.58-1.42a3.94,3.94,0,0,1,2.68-.62c2,0,2.92.64,3.16,1.49l.34,5.1s.37,1.32-1.92,1.81l0,6.88"/><path class="cls-1" d="M49.31,29.77v-7s-.66-.05-1.18-.14"/></g></g></svg>