<svg xmlns="http://www.w3.org/2000/svg" viewBox="0 0 55.5 40.13"><defs><style>.cls-1{fill:none;stroke:#2e66ff;stroke-linecap:round;stroke-linejoin:round;stroke-width:1.5px;}</style></defs><g id="Layer_2" data-name="Layer 2"><g id="blue"><path class="cls-1" d="M43.51.75C42.65.75,40,1,37,3.66h-.06C33.88,1,31.24.75,30.38.75a5.42,5.42,0,0,0-5.2,5.62c0,3.4,3.39,8.14,7.2,11.48.19.19.39.37.6.55,2.18,1.78,3.46,2.57,4,2.6h0c.5,0,1.78-.82,4-2.6.21-.18.41-.36.6-.55,3.81-3.34,7.19-8.08,7.19-11.48A5.41,5.41,0,0,0,43.51.75Z"/><path class="cls-1" d="M.75,27.12s4.4,0,6.23-1a24.34,24.34,0,0,0,4.27-3.42,5.88,5.88,0,0,1,6.59-1.23l15.88,5.63s2.93,1.1,2.56,3.29-4.15,1.35-4.15,1.35l-9.22-1.89"/><path class="cls-1" d="M39.46,29.19l10.31-3.6s3.18-.91,4.34.87c0,0,2.62,2.55-2.75,5L32.5,39S31,40.12,27.73,38.6L10.88,33l-5.8,2.68"/></g></g></svg>